<svg width="32" height="32" viewBox="0 0 32 32" fill="none" xmlns="http://www.w3.org/2000/svg">
<path d="M3.83906 0.0390625C1.74943 0.0390625 0.0390625 1.74943 0.0390625 3.83906V28.1591C0.0390625 30.2487 1.74943 31.9591 3.83906 31.9591H16.6314C16.7135 31.9726 16.7972 31.9726 16.8793 31.9591H21.1914C21.2735 31.9726 21.3572 31.9726 21.4393 31.9591H28.1591C30.2487 31.9591 31.9591 30.2487 31.9591 28.1591V3.83906C31.9591 1.74943 30.2487 0.0390625 28.1591 0.0390625H3.83906ZM3.83906 1.55906H28.1591C29.4271 1.55906 30.4391 2.57102 30.4391 3.83906V28.1591C30.4391 29.4271 29.4271 30.4391 28.1591 30.4391H22.0791V19.7991H24.9825L26.0468 14.4791H22.0791V12.9591C22.0791 12.5354 22.1194 12.5022 22.2616 12.4098C22.4039 12.3174 22.8435 12.1991 23.5991 12.1991H25.8791V7.91961L25.4456 7.71328C25.4456 7.71328 23.6999 6.87906 21.3191 6.87906C19.6091 6.87906 18.2043 7.56036 17.3053 8.68406C16.4064 9.80775 15.9991 11.3124 15.9991 12.9591V14.4791H13.7191V19.7991H15.9991V30.4391H3.83906C2.57102 30.4391 1.55906 29.4271 1.55906 28.1591V3.83906C1.55906 2.57101 2.57102 1.55906 3.83906 1.55906ZM21.3191 8.39906C22.8991 8.39906 23.8935 8.74749 24.3591 8.93195V10.6791H23.5991C22.7244 10.6791 22.0236 10.7514 21.4334 11.1348C20.8432 11.5181 20.5591 12.2458 20.5591 12.9591V15.9991H24.1913L23.7356 18.2791H20.5591V30.4391H17.5191V18.2791H15.2391V15.9991H17.5191V12.9591C17.5191 11.5657 17.8718 10.4104 18.4928 9.63406C19.1139 8.85776 19.9891 8.39906 21.3191 8.39906Z" fill="#C2EFD4"/>
</svg>
