<svg width="34" height="34" viewBox="0 0 34 34" fill="none" xmlns="http://www.w3.org/2000/svg">
<path d="M10.1613 0.28125C4.71393 0.28125 0.28125 4.71393 0.28125 10.1613V23.8413C0.28125 29.2886 4.71393 33.7213 10.1613 33.7213H23.8413C29.2886 33.7213 33.7213 29.2886 33.7213 23.8413V10.1613C33.7213 4.71393 29.2886 0.28125 23.8413 0.28125H10.1613ZM10.1613 1.80125H23.8413C28.467 1.80125 32.2013 5.53553 32.2013 10.1613V23.8413C32.2013 28.467 28.467 32.2013 23.8413 32.2013H10.1613C5.53553 32.2013 1.80125 28.467 1.80125 23.8413V10.1613C1.80125 5.53553 5.53553 1.80125 10.1613 1.80125ZM26.1213 6.36125C25.2818 6.36125 24.6013 7.04178 24.6013 7.88125C24.6013 8.72072 25.2818 9.40125 26.1213 9.40125C26.9607 9.40125 27.6413 8.72072 27.6413 7.88125C27.6413 7.04178 26.9607 6.36125 26.1213 6.36125ZM17.0013 8.64125C12.3932 8.64125 8.64125 12.3932 8.64125 17.0013C8.64125 21.6094 12.3932 25.3613 17.0013 25.3613C21.6094 25.3613 25.3613 21.6094 25.3613 17.0013C25.3613 12.3932 21.6094 8.64125 17.0013 8.64125ZM17.0013 10.1613C20.7879 10.1613 23.8413 13.2146 23.8413 17.0013C23.8413 20.7879 20.7879 23.8413 17.0013 23.8413C13.2146 23.8413 10.1613 20.7879 10.1613 17.0013C10.1613 13.2146 13.2146 10.1613 17.0013 10.1613Z" fill="#C2EFD4"/>
</svg>
