<svg width="35" height="30" viewBox="0 0 35 30" fill="none" xmlns="http://www.w3.org/2000/svg">
<path d="M23.9549 0.828125C19.7685 0.828125 16.3642 4.23242 16.3642 8.41875C16.3642 8.67032 16.4271 8.91641 16.4517 9.1625C11.2756 8.66758 6.69822 6.17383 3.58923 2.35938C3.44431 2.17617 3.22009 2.07774 2.98493 2.09414C2.75251 2.11055 2.5447 2.24453 2.42985 2.44688C1.77634 3.5707 1.40173 4.86407 1.40173 6.25313C1.40173 7.93476 2.0033 9.47422 2.93298 10.7375C2.75251 10.6582 2.55564 10.6145 2.3861 10.5188C2.17009 10.4039 1.91032 10.4094 1.69978 10.5352C1.48923 10.6609 1.36071 10.8879 1.35798 11.1313V11.2188C1.35798 13.7973 2.69235 16.0367 4.66111 17.4094C4.63923 17.4066 4.61735 17.4148 4.59548 17.4094C4.35486 17.3684 4.11149 17.4531 3.95017 17.6363C3.78884 17.8195 3.73689 18.0738 3.80799 18.3063C4.59002 20.7371 6.58611 22.5938 9.05799 23.2719C7.08924 24.4422 4.80603 25.1313 2.34236 25.1313C1.80916 25.1313 1.29783 25.1039 0.789237 25.0438C0.461112 25 0.146658 25.1914 0.0372825 25.5031C-0.0748295 25.8148 0.0482235 26.1621 0.329862 26.3344C3.48807 28.3605 7.2369 29.55 11.2674 29.55C17.7998 29.55 22.924 26.8211 26.3611 22.9219C29.7982 19.0227 31.5892 13.9586 31.5892 9.22813C31.5892 9.02851 31.5728 8.83438 31.5674 8.6375C32.8498 7.65586 33.9955 6.50469 34.8924 5.15938C35.0701 4.89961 35.051 4.55234 34.8459 4.31172C34.6435 4.07109 34.3017 3.99726 34.0174 4.13125C33.6564 4.29258 33.2353 4.30899 32.858 4.4375C33.3557 3.77305 33.7822 3.05664 34.0392 2.25C34.1267 1.97383 34.031 1.67032 33.8041 1.48984C33.5771 1.31211 33.2599 1.29023 33.0111 1.44063C31.8162 2.14883 30.4928 2.64649 29.0955 2.95C27.7392 1.68125 25.9537 0.828125 23.9549 0.828125ZM23.9549 2.22813C25.7404 2.22813 27.3537 2.99101 28.483 4.19688C28.6525 4.37188 28.9013 4.4457 29.1392 4.39375C30.0525 4.21328 30.9193 3.94805 31.7642 3.60625C31.2775 4.2625 30.676 4.82305 29.9705 5.24688C29.6506 5.40274 29.5002 5.77187 29.6177 6.1082C29.7326 6.4418 30.0826 6.63594 30.4299 6.55938C31.1299 6.47461 31.7533 6.19024 32.4205 6.0125C31.8217 6.66055 31.1654 7.2457 30.4517 7.7625C30.2576 7.90469 30.151 8.13438 30.1674 8.375C30.1783 8.65938 30.1892 8.94101 30.1892 9.22813C30.1892 13.6031 28.5103 18.3527 25.3111 21.9813C22.1119 25.6098 17.4142 28.15 11.2674 28.15C8.47556 28.15 5.83962 27.532 3.45798 26.4438C6.41111 26.2168 9.13455 25.1723 11.333 23.4469C11.5627 23.2637 11.6529 22.9574 11.5599 22.6785C11.467 22.3996 11.2099 22.2082 10.9174 22.2C8.60955 22.159 6.67634 20.8164 5.64548 18.9188C5.68376 18.9188 5.71657 18.9188 5.75486 18.9188C6.44665 18.9188 7.13024 18.8313 7.76736 18.6563C8.07361 18.566 8.28415 18.2816 8.27322 17.9617C8.26228 17.6418 8.03533 17.3684 7.72361 17.3C5.23259 16.7969 3.36501 14.768 2.93298 12.2469C3.63845 12.4902 4.36032 12.6816 5.14235 12.7063C5.46228 12.7254 5.75212 12.5258 5.85056 12.2223C5.949 11.9188 5.82868 11.5852 5.55798 11.4156C3.89548 10.3027 2.80173 8.40782 2.80173 6.25313C2.80173 5.45469 3.00955 4.72188 3.28298 4.02188C6.78298 7.86367 11.683 10.4148 17.2174 10.6938C17.4361 10.7047 17.6494 10.6145 17.7916 10.4477C17.9338 10.2781 17.9884 10.0539 17.9392 9.84063C17.8326 9.38672 17.7642 8.90547 17.7642 8.41875C17.7642 4.98984 20.526 2.22813 23.9549 2.22813Z" fill="#C2EFD4"/>
</svg>
